<svg xmlns="http://www.w3.org/2000/svg" width="159" height="287" viewBox="0 0 159 287">
    <g fill="none" fill-rule="evenodd">
        <rect width="128" height="176" fill="#B71C1C" rx="12" transform="translate(15)"/>
        <path fill="#FFF" d="M57 84h44V44a4 4 0 1 1 8 0v88a4 4 0 1 1-8 0V92H57v40a4 4 0 1 1-8 0V44a4 4 0 1 1 8 0v40z"/>
        <g fill="#222">
            <path d="M134.85 284.727c-11.805 0-21.409-9.605-21.409-21.408 0-11.806 9.605-21.411 21.408-21.411 11.807 0 21.41 9.605 21.41 21.411 0 11.803-9.603 21.408-21.41 21.408m0-44.648c-12.814 0-23.24 10.426-23.24 23.24 0 12.815 10.426 23.24 23.24 23.24 12.815 0 23.24-10.425 23.24-23.24 0-12.816-10.425-23.24-23.24-23.24M63.196 272.253v-31.337a.915.915 0 1 0-1.83 0v31.635c-.159 6.756-5.696 12.206-12.488 12.206-6.893 0-12.506-5.606-12.506-12.504h-.003v-31.337a.914.914 0 0 0-.914-.916.918.918 0 0 0-.917.916v31.368c0 .012.007.024.009.036.034 7.873 6.447 14.268 14.33 14.268 7.592 0 13.81-5.942 14.286-13.415.007-.053.033-.103.033-.157v-.465c.001-.101.015-.197.015-.298h-.015zM105.022 265.072a.912.912 0 0 0-.912.915v15.521c-.18.11-.355.225-.537.33a21.37 21.37 0 0 1-10.747 2.89c-11.81 0-21.411-9.606-21.411-21.408 0-11.807 9.603-21.412 21.411-21.412 4.121 0 8.128 1.176 11.579 3.4.425.272.989.15 1.261-.273a.917.917 0 0 0-.27-1.267 23.164 23.164 0 0 0-12.57-3.689c-12.817 0-23.242 10.426-23.242 23.24 0 12.815 10.425 23.24 23.242 23.24a23.248 23.248 0 0 0 12.7-3.774.906.906 0 0 0 .4-.81c.003-.025.011-.043.011-.067v-15.92a.917.917 0 0 0-.915-.916M26.395 240.024a.914.914 0 0 0-.914.915v20.052H1.827v-20.076a.914.914 0 1 0-1.827 0v44.741a.914.914 0 1 0 1.827 0v-22.834h23.654v22.836a.914.914 0 1 0 1.827 0v-44.719a.913.913 0 0 0-.913-.915"/>
        </g>
    </g>
</svg>
